<?xml version="1.0" standalone="no"?>
<!DOCTYPE svg PUBLIC "-//W3C//DTD SVG 20010904//EN"
 "http://www.w3.org/TR/2001/REC-SVG-20010904/DTD/svg10.dtd">
<svg version="1.0" xmlns="http://www.w3.org/2000/svg"
 width="1024.000000pt" height="1024.000000pt" viewBox="0 0 1024.000000 1024.000000"
 preserveAspectRatio="xMidYMid meet">

<g transform="translate(0.000000,1024.000000) scale(0.100000,-0.100000)"
fill="#000000" stroke="none">
<path d="M4826 9462 c-4 -3 -46 -7 -96 -8 -49 -1 -102 -5 -117 -8 -15 -3 -53
-8 -83 -11 -30 -3 -82 -11 -115 -17 -33 -6 -68 -10 -77 -10 -10 0 -18 -3 -18
-8 0 -5 -15 -7 -32 -4 -27 5 -30 3 -18 -6 12 -10 11 -11 -8 -7 -13 3 -76 -8
-140 -24 -64 -16 -126 -31 -137 -33 -55 -10 -115 -29 -115 -38 0 -5 -10 -4
-21 3 -12 6 -19 7 -16 2 3 -5 -29 -20 -73 -34 -50 -15 -74 -27 -67 -32 7 -5 1
-6 -15 -3 -15 3 -29 2 -32 -3 -3 -4 -35 -17 -70 -27 -35 -10 -62 -23 -59 -28
3 -5 1 -6 -5 -2 -6 4 -30 -2 -53 -13 -23 -11 -46 -18 -52 -14 -6 4 -7 1 -2 -7
6 -10 4 -12 -8 -7 -9 3 -17 2 -19 -3 -2 -5 -25 -18 -53 -28 -27 -11 -49 -26
-47 -32 1 -6 -2 -8 -8 -5 -12 7 -123 -44 -232 -107 -36 -21 -74 -38 -82 -38
-9 0 -16 -4 -16 -8 0 -11 -63 -47 -77 -44 -8 2 -10 -3 -6 -14 4 -12 3 -15 -6
-10 -6 4 -19 2 -28 -5 -8 -7 -23 -18 -33 -24 -9 -5 -46 -29 -81 -52 -35 -24
-67 -43 -72 -43 -4 0 -5 -5 -1 -12 5 -7 3 -8 -6 -3 -7 4 -15 3 -19 -2 -13 -19
-155 -118 -165 -115 -6 2 -8 0 -4 -4 4 -3 -8 -19 -27 -34 -19 -15 -31 -31 -27
-35 4 -5 2 -5 -4 -2 -6 4 -29 -9 -52 -28 -22 -19 -43 -35 -47 -35 -16 0 -96
-91 -89 -102 4 -7 3 -8 -5 -4 -13 8 -31 -7 -168 -141 -45 -45 -83 -87 -83 -94
0 -7 -3 -10 -6 -7 -7 8 -80 -72 -76 -84 1 -5 -2 -7 -7 -4 -10 7 -51 -44 -51
-63 0 -6 -4 -10 -9 -9 -19 6 -57 -50 -51 -77 1 -5 -2 -7 -6 -3 -7 8 -54 -40
-54 -55 0 -5 -5 -5 -10 -2 -6 3 -10 1 -10 -6 0 -7 -20 -39 -45 -70 -25 -32
-45 -62 -45 -69 0 -6 -5 -8 -12 -4 -8 5 -9 2 -5 -10 4 -9 3 -15 -2 -12 -5 3
-16 -10 -25 -29 -9 -19 -21 -35 -26 -35 -6 0 -10 -5 -10 -10 0 -6 -5 -16 -10
-23 -18 -20 -96 -144 -131 -205 -17 -31 -34 -59 -38 -62 -3 -3 -23 -39 -44
-80 -21 -41 -53 -102 -70 -136 -18 -33 -38 -76 -46 -95 -8 -19 -25 -56 -38
-83 -12 -28 -23 -53 -23 -58 0 -5 -9 -27 -20 -51 -39 -85 -157 -422 -165 -472
-2 -11 -13 -56 -25 -100 -83 -316 -120 -597 -127 -983 -10 -492 34 -842 163
-1307 82 -294 269 -743 376 -902 16 -24 27 -43 24 -43 -5 0 57 -108 74 -127 5
-7 10 -14 10 -17 0 -5 134 -208 152 -231 4 -5 29 -39 55 -75 26 -36 51 -67 55
-70 4 -3 22 -26 40 -52 130 -181 506 -550 754 -739 384 -293 806 -518 1269
-675 439 -150 903 -224 1395 -224 878 0 1692 244 2415 724 266 176 442 321
680 560 156 157 206 211 284 306 29 36 60 74 69 85 9 11 38 49 64 85 26 36 52
70 57 77 8 9 46 66 96 144 46 71 55 85 63 94 5 6 28 47 52 90 23 44 50 91 59
105 25 35 115 214 141 280 12 30 30 71 40 90 10 19 27 60 38 90 11 30 34 93
52 140 46 125 72 201 80 235 4 17 21 82 38 145 64 239 105 489 132 787 15 157
8 665 -10 793 -33 241 -44 313 -61 400 -22 109 -55 243 -70 281 -6 15 -12 37
-13 50 -2 13 -21 76 -42 139 -21 63 -38 117 -39 120 -2 13 -59 159 -76 196
-10 22 -19 43 -19 47 0 3 -17 41 -37 84 -21 43 -38 86 -40 95 -1 9 -17 40 -34
70 -17 29 -53 94 -79 143 -46 88 -97 175 -152 259 -15 22 -31 48 -35 56 -3 8
-15 23 -26 32 -11 10 -16 22 -11 29 4 7 3 9 -3 6 -6 -4 -18 11 -28 33 -10 22
-22 37 -26 34 -5 -3 -9 -1 -9 4 0 6 -20 37 -45 70 -25 33 -45 66 -45 73 0 7
-3 9 -6 6 -4 -4 -19 9 -34 28 -15 19 -31 31 -34 27 -4 -4 -7 -2 -5 3 1 6 -1
18 -6 29 -10 24 -67 82 -77 79 -4 -2 -10 8 -14 21 -3 14 -28 44 -55 69 -27 24
-49 48 -49 52 0 6 -84 91 -193 193 -25 24 -51 41 -56 37 -7 -4 -8 1 -4 12 3
10 3 15 -1 11 -8 -7 -76 58 -76 73 0 5 -6 9 -13 9 -7 0 -24 11 -38 24 -14 12
-54 44 -89 71 -36 26 -67 50 -70 54 -8 10 -159 121 -165 121 -3 0 -48 29 -100
65 -56 37 -102 62 -110 58 -11 -3 -13 -1 -9 10 3 8 0 18 -7 23 -8 5 -10 3 -4
-5 7 -13 -33 10 -65 35 -8 6 -26 15 -40 19 -14 4 -27 11 -30 14 -13 17 -83 51
-92 45 -6 -4 -8 -3 -5 3 7 11 -151 86 -164 77 -5 -3 -8 0 -7 6 2 6 -19 21 -47
31 -27 11 -78 34 -113 50 -35 16 -67 27 -72 24 -5 -3 -11 -1 -14 4 -4 5 -30
17 -59 27 -28 9 -58 21 -64 26 -7 6 -20 8 -28 4 -9 -3 -14 -2 -11 2 3 5 -31
19 -74 32 -43 13 -76 28 -73 33 3 5 -4 4 -16 -2 -11 -7 -21 -8 -21 -3 0 9 -62
29 -115 38 -11 2 -65 15 -120 29 -55 15 -110 25 -122 22 -13 -2 -20 0 -16 6 4
6 -2 8 -15 5 -12 -4 -22 -3 -22 2 0 4 -21 10 -47 13 -27 3 -57 7 -68 10 -23 5
-82 15 -140 22 -22 3 -57 8 -78 11 -21 3 -76 7 -122 8 -46 1 -87 5 -90 8 -4 3
-21 2 -38 -3 -40 -11 -46 -11 -27 1 10 6 -68 10 -230 10 -162 0 -240 -4 -230
-10 19 -12 13 -12 -27 -1 -17 5 -34 7 -37 3z m819 -311 c82 -11 208 -33 280
-47 71 -15 137 -28 145 -29 8 -1 22 -5 30 -8 8 -4 51 -15 96 -26 44 -11 135
-39 203 -61 67 -22 127 -37 133 -34 7 5 8 2 3 -6 -6 -10 -4 -12 9 -7 10 4 15
3 11 -3 -6 -10 13 -15 48 -12 10 1 15 -3 12 -8 -3 -6 -1 -11 4 -11 19 -2 25
-5 95 -37 38 -18 70 -32 72 -32 2 0 49 -22 105 -50 56 -27 106 -47 113 -43 6
3 8 2 3 -2 -9 -10 180 -118 193 -110 5 3 12 0 16 -6 4 -8 3 -9 -4 -5 -7 4 -12
5 -12 2 0 -3 21 -17 48 -32 26 -15 55 -34 64 -42 9 -8 23 -11 30 -6 7 4 10 4
6 -1 -8 -8 91 -81 105 -77 4 1 7 -2 7 -6 0 -5 21 -24 48 -42 26 -19 89 -67
140 -107 52 -42 98 -71 104 -67 6 4 8 3 5 -3 -4 -6 12 -28 36 -48 252 -222
519 -528 705 -806 391 -586 617 -1241 673 -1953 15 -186 6 -603 -15 -778 -116
-930 -517 -1752 -1175 -2408 -760 -757 -1786 -1180 -2861 -1180 -1078 0 -2107
425 -2865 1185 -604 604 -993 1351 -1139 2190 -75 434 -74 962 4 1395 154 854
549 1598 1171 2206 146 143 188 179 345 299 71 54 135 105 142 114 7 9 15 15
18 13 9 -5 104 65 96 73 -4 5 -1 5 6 1 7 -5 21 -2 30 6 9 8 38 27 65 42 26 15
47 29 47 32 0 3 -5 2 -12 -2 -7 -4 -8 -3 -4 5 4 6 11 9 16 6 13 -8 202 100
193 110 -5 4 -3 5 3 2 7 -4 57 16 113 43 56 28 103 50 105 50 2 0 34 14 72 32
70 32 76 35 95 37 5 0 7 6 3 13 -5 8 -2 9 10 5 9 -4 57 9 109 28 108 40 226
77 317 100 36 9 72 19 80 22 8 3 24 7 35 9 11 1 76 14 143 28 104 22 329 54
487 70 22 2 186 2 365 1 263 -3 354 -7 475 -24z"/>
<path d="M3680 5114 c0 -2037 2 -2315 15 -2310 13 5 558 318 740 426 44 26
181 106 305 177 124 72 383 222 575 333 430 250 739 429 910 528 72 41 166 97
210 123 44 26 166 96 270 156 478 276 961 556 968 563 5 4 -54 43 -130 87 -76
44 -253 146 -393 228 -140 81 -271 157 -290 168 -19 10 -75 43 -125 72 -78 46
-334 194 -780 452 -66 38 -336 195 -600 348 -555 322 -666 386 -830 480 -66
38 -170 99 -232 135 -61 36 -169 98 -240 139 -70 41 -180 105 -244 143 -64 37
-119 68 -123 68 -3 0 -6 -1042 -6 -2316z"/>
</g>
</svg>
